<?xml version="1.0" encoding="utf-8"?>
<!-- Generator: Adobe Illustrator 26.0.1, SVG Export Plug-In . SVG Version: 6.00 Build 0)  -->
<svg version="1.1" id="Layer_1" xmlns="http://www.w3.org/2000/svg" xmlns:xlink="http://www.w3.org/1999/xlink" x="0px" y="0px"
	 viewBox="0 0 64 80" style="enable-background:new 0 0 64 80;" xml:space="preserve">
<style type="text/css">
	.st0{fill:#FFFFFF;}
</style>
<g>
	<path class="st0" d="M34.5,24.5c0-4.7-3.8-8.5-8.5-8.5s-8.5,3.8-8.5,8.5S21.3,33,26,33C30.7,33,34.5,29.2,34.5,24.5z M19.5,24.5
		c0-3.6,2.9-6.5,6.5-6.5s6.5,2.9,6.5,6.5S29.6,31,26,31C22.4,31,19.5,28.1,19.5,24.5z"/>
	<path class="st0" d="M13,46v3c0,0.6,0.4,1,1,1h24c0.6,0,1-0.4,1-1v-3c0-5-4-9-9-9l0,0h-8C17,37,13,41,13,46L13,46z M22,39h8
		c3.9,0,7,3.1,7,7v2H15v-2C15,42.1,18.1,39,22,39z"/>
	<path class="st0" d="M60,52h-2V21c0-1.3-0.6-2.5-1.7-3.2c2.8-1.4,4.7-3.9,4.7-6.8c0-4.4-4.5-8-10-8s-10,3.6-10,8
		c0,1.3,0.4,2.5,1.1,3.6l-1,3.1c-0.2,0.5,0.1,1.1,0.6,1.3c0.1,0,0.2,0,0.3,0.1c0.1,0,0.2,0,0.3,0l3.7-1.1c1.6,0.7,3.3,1.1,5,1.1h3
		c1.1,0,2,0.9,2,2v31H39c-0.3,0-0.5,0.1-0.7,0.3L36.6,54h-9.2l-1.7-1.7C25.5,52.1,25.3,52,25,52H8V21c0-1.1,0.9-2,2-2h3.7
		c-0.3,0.6-0.5,1.3-0.7,2c-1.7,0-3,1.3-3,3v1c0,1.7,1.3,3,3,3h2c0.6,0,1-0.4,1-1v-5c0-0.5-0.4-1-0.9-1c1.9-6.1,8.3-9.5,14.4-7.6
		c3.6,1.1,6.5,4,7.6,7.6c-0.6,0-1,0.4-1,1v5c0,3.9-3.1,7-7,7l0,0h-3c-0.6,0-1,0.4-1,1s0.4,1,1,1h3c4.6,0,8.4-3.4,8.9-8H39
		c1.7,0,3-1.3,3-3v-1c0-1.7-1.3-3-3-3c-1.9-7.2-9.3-11.5-16.5-9.5c-3.2,0.8-5.9,2.8-7.7,5.5H10c-2.2,0-4,1.8-4,4v31H4
		c-0.6,0-1,0.4-1,1v3c0,2.8,2.2,5,5,5h48c2.8,0,5-2.2,5-5v-3C61,52.4,60.6,52,60,52z M46.5,16c-0.1-0.1-0.3-0.1-0.5-0.1
		c-0.1,0-0.2,0-0.3,0l-2.2,0.6l0.6-1.8c0.1-0.3,0-0.6-0.1-0.9c-0.6-0.8-1-1.8-1-2.9c0-3.3,3.6-6,8-6s8,2.7,8,6s-3.6,6-8,6
		C49.4,17,47.9,16.7,46.5,16z M40,24v1c0,0.6-0.4,1-1,1h-1v-3h1C39.6,23,40,23.4,40,24z M14,26h-1c-0.6,0-1-0.4-1-1v-1
		c0-0.6,0.4-1,1-1h1V26z M59,56c0,1.7-1.3,3-3,3H8c-1.7,0-3-1.3-3-3v-2h19.6l1.7,1.7c0.2,0.2,0.4,0.3,0.7,0.3h10
		c0.3,0,0.5-0.1,0.7-0.3l1.7-1.7H59V56z"/>
	<path class="st0" d="M52,29h-9c-0.6,0-1,0.4-1,1s0.4,1,1,1h9c0.6,0,1-0.4,1-1S52.6,29,52,29z"/>
	<path class="st0" d="M52,35h-9c-0.6,0-1,0.4-1,1s0.4,1,1,1h9c0.6,0,1-0.4,1-1S52.6,35,52,35z"/>
	<path class="st0" d="M52,41h-9c-0.6,0-1,0.4-1,1s0.4,1,1,1h9c0.6,0,1-0.4,1-1S52.6,41,52,41z"/>
	<path class="st0" d="M54,8h-6c-0.6,0-1,0.4-1,1s0.4,1,1,1h6c0.6,0,1-0.4,1-1S54.6,8,54,8z"/>
	<path class="st0" d="M54,12h-6c-0.6,0-1,0.4-1,1s0.4,1,1,1h6c0.6,0,1-0.4,1-1S54.6,12,54,12z"/>
</g>
</svg>
