<?xml version="1.0" encoding="utf-8"?>
<!-- Generator: Adobe Illustrator 26.0.1, SVG Export Plug-In . SVG Version: 6.00 Build 0)  -->
<svg version="1.1" id="Layer_1" xmlns="http://www.w3.org/2000/svg" xmlns:xlink="http://www.w3.org/1999/xlink" x="0px" y="0px"
	 viewBox="0 0 95 118.8" style="enable-background:new 0 0 95 118.8;" xml:space="preserve">
<style type="text/css">
	.st0{fill-rule:evenodd;clip-rule:evenodd;fill:#FFFFFF;}
</style>
<path class="st0" d="M27.2,45.1c2.3-2.3,6-2.3,8.3,0c2,2,2.3,5.2,0.7,7.5l4.6,4.7c0.2,0.2,0.3,0.5,0.3,0.7l0,0v31.7
	c1,0.2,1.9,0.3,2.9,0.4c2.5,0.3,5.1,0.3,7.6,0c1-0.1,2-0.3,2.9-0.4V58.1c0-0.3,0.1-0.6,0.4-0.8l4.6-4.6c-1.9-2.7-1.2-6.3,1.4-8.2
	c2.7-1.9,6.3-1.2,8.2,1.4c1.9,2.7,1.2,6.3-1.4,8.2c-2,1.4-4.7,1.4-6.7,0l-4.3,4.4v32.1l0,0c0,0.5-0.3,0.9-0.8,1
	c-1.3,0.3-2.6,0.5-4,0.7c-2.7,0.3-5.4,0.3-8.1,0c-1.3-0.1-2.6-0.4-3.9-0.6c-0.5-0.1-0.9-0.5-0.9-1V58.5l-4.3-4.4
	c-2.7,1.8-6.3,1.1-8.2-1.5C24.9,50.3,25.2,47.1,27.2,45.1L27.2,45.1z M74.7,63.3c2.8,1.7,6.4,0.8,8.1-2c1.4-2.3,1-5.3-0.9-7.2
	c-0.2-0.2-0.5-0.4-0.8-0.6c1-2.2,1.7-4.4,2.2-6.7c1.1-5.1,1.2-10.4,0.1-15.5l2.5-4.8c0.3-0.5,0-1.2-0.5-1.4
	c-0.5-0.2-1.1-0.1-1.4,0.4l-1.4,2.7C76.8,9.1,56.5-1.8,37.3,4.1C26.9,7.3,18.4,14.9,14.2,25l-4.7,2.6C9,27.8,8.8,28.5,9,29
	c0.3,0.5,0.9,0.7,1.4,0.5c0,0,0,0,0.1,0l2.7-1.4c-2.6,8.4-2.1,17.5,1.4,25.5c-0.3,0.2-0.5,0.4-0.8,0.6c-2.3,2.3-2.3,6,0,8.3
	c1.9,1.9,4.9,2.3,7.2,0.9c0.6,0.7,1.3,1.4,2,2c0.9,0.8,1.7,1.5,2.6,2.2v16.8c0,0.6,0.5,1.1,1.1,1.1s1.1-0.5,1.1-1.1V67.1l0,0
	c0-0.3-0.1-0.5-0.3-0.7l-4.6-4.7c1.9-2.7,1.2-6.3-1.4-8.2c-1.4-1-3.2-1.3-4.9-0.9c-0.9-2-1.6-4.1-2.1-6.3c-1.3-5.9-1.1-12,0.7-17.8
	l1.3,2.9c0.2,0.5,0.9,0.8,1.4,0.5c0.5-0.2,0.8-0.9,0.5-1.4l0,0l-2.2-4.9C23.5,8.3,43.5,0,61,7.2c9.5,3.9,16.7,11.9,19.6,21.7
	L78,27.2c-0.5-0.3-1.1-0.2-1.5,0.3s-0.2,1.1,0.3,1.5c0,0,0,0,0,0l4.5,2.8c1.5,7,0.7,14.2-2.2,20.8c-3.1-0.8-6.4,1.1-7.2,4.2
	c-0.4,1.7-0.1,3.4,0.9,4.8l-4.6,4.7c-0.2,0.2-0.3,0.5-0.3,0.7l0,0v17.3c0,0.6,0.5,1,1.1,1c0.6,0,1-0.5,1-1V67.6
	c0.9-0.7,1.8-1.4,2.6-2.2C73.4,64.7,74.1,64,74.7,63.3L74.7,63.3z M50.3,14l-0.4-2h-4.1l-0.4,2.1c-0.1,0.4-0.4,0.7-0.8,0.8l0,0
	c-0.6,0.2-1.2,0.4-1.8,0.6c-0.6,0.2-1.2,0.5-1.7,0.9c-0.4,0.2-0.8,0.2-1.2,0l-1.8-1.2L35.3,18l1.2,1.8c0.2,0.3,0.2,0.8,0,1.2
	c-0.7,1.1-1.2,2.3-1.5,3.5c-0.1,0.4-0.5,0.7-0.9,0.8l-2,0.4v4.1l2.1,0.4c0.4,0.1,0.7,0.4,0.8,0.8l0,0c0.3,1.3,0.8,2.5,1.5,3.6
	c0.2,0.4,0.2,0.8,0,1.2l-1.2,1.8l2.9,2.9L40,39c0.3-0.2,0.8-0.2,1.2,0c1.1,0.7,2.3,1.2,3.5,1.5c0.4,0.1,0.7,0.5,0.8,0.9l0.4,2h4.1
	l0.4-2.1c0.1-0.4,0.4-0.7,0.8-0.8l0,0c1.3-0.3,2.5-0.8,3.6-1.5c0.4-0.2,0.8-0.2,1.2,0l1.8,1.2l2.9-2.9l-1.2-1.8
	c-0.2-0.3-0.2-0.8,0-1.2c0.3-0.5,0.6-1.1,0.9-1.7c0.2-0.6,0.5-1.2,0.6-1.8c0.1-0.4,0.5-0.7,0.9-0.8l2-0.4v-4.1l-2.1-0.4
	c-0.4-0.1-0.7-0.4-0.8-0.8l0,0c-0.3-1.3-0.8-2.5-1.5-3.6c-0.2-0.4-0.2-0.8,0-1.2l1.2-1.8l-2.9-2.9l-1.8,1.2c-0.3,0.2-0.8,0.2-1.2,0
	c-0.5-0.3-1.1-0.6-1.7-0.9c-0.6-0.2-1.2-0.4-1.8-0.6C50.6,14.8,50.3,14.4,50.3,14L50.3,14z M52.5,23c2.6,2.6,2.6,6.7,0,9.3
	c-2.6,2.6-6.7,2.6-9.3,0c-2.6-2.6-2.6-6.7,0-9.3c1.2-1.2,2.9-1.9,4.6-1.9C49.6,21.1,51.3,21.8,52.5,23z M47.9,19
	c4.8,0,8.7,3.9,8.7,8.7c0,4.8-3.9,8.7-8.7,8.7c-4.8,0-8.7-3.9-8.7-8.7c0-2.3,0.9-4.5,2.5-6.1C43.4,19.9,45.6,19,47.9,19z"/>
</svg>
